<?xml version="1.0" encoding="utf-8"?>
<!-- Generator: Adobe Illustrator 19.1.0, SVG Export Plug-In . SVG Version: 6.00 Build 0)  -->
<svg version="1.1" id="Layer_1" xmlns="http://www.w3.org/2000/svg" xmlns:xlink="http://www.w3.org/1999/xlink" x="0px" y="0px"
	 viewBox="-331 480 536 241" style="enable-background:new -331 480 536 241;" xml:space="preserve">
<style type="text/css">
	.st0{fill:none;}
	.st1{fill:#FFFFFF;}
</style>
<path class="st0" d="M-75,588.5h24v24h-24V588.5z"/>
<path class="st0" d="M-75,588.5h24v24h-24V588.5z"/>
<path class="st1" d="M-153,649.6v24.5h24.5C-128.5,660.6-139.4,649.6-153,649.6z M-153,616.9v16.4c22.6,0,40.9,18.3,40.9,40.9h16.4
	C-95.7,642.5-121.3,616.9-153,616.9z M-5.7,559.6h-114.5v13.3c32.4,10.5,58,36.1,68.5,68.5h46.1V559.6z M-153,584.1v16.4
	c40.7,0,73.6,33,73.6,73.6H-63C-63,624.4-103.3,584.1-153,584.1z M10.6,526.9h-147.3c-9,0-16.4,7.4-16.4,16.4v24.5h16.4v-24.5H10.6
	v114.5h-57.3v16.4h57.3c9,0,16.4-7.4,16.4-16.4V543.2C27,534.2,19.6,526.9,10.6,526.9z"/>
</svg>
