<?xml version="1.0" encoding="UTF-8" standalone="no"?>
<svg
   xmlns:dc="http://purl.org/dc/elements/1.1/"
   xmlns:cc="http://creativecommons.org/ns#"
   xmlns:rdf="http://www.w3.org/1999/02/22-rdf-syntax-ns#"
   xmlns:svg="http://www.w3.org/2000/svg"
   xmlns="http://www.w3.org/2000/svg"
   xmlns:sodipodi="http://sodipodi.sourceforge.net/DTD/sodipodi-0.dtd"
   xmlns:inkscape="http://www.inkscape.org/namespaces/inkscape"
   version="1.0"
   width="1200"
   height="500"
   overflow="scroll"
   id="svg3396"
   inkscape:version="0.91 r"
   sodipodi:docname="TeX_logo2.svg">
  <metadata
     id="metadata3416">
    <rdf:RDF>
      <cc:Work
         rdf:about="">
        <dc:format>image/svg+xml</dc:format>
        <dc:type
           rdf:resource="http://purl.org/dc/dcmitype/StillImage" />
        <dc:title>LaTeX logo</dc:title>
      </cc:Work>
    </rdf:RDF>
  </metadata>
  <defs
     id="defs3414" />
  <sodipodi:namedview
     pagecolor="#ffffff"
     bordercolor="#666666"
     borderopacity="1"
     objecttolerance="10"
     gridtolerance="10"
     guidetolerance="10"
     inkscape:pageopacity="0"
     inkscape:pageshadow="2"
     inkscape:window-width="2479"
     inkscape:window-height="1410"
     id="namedview3412"
     showgrid="false"
     inkscape:zoom="1.6408333"
     inkscape:cx="592.95196"
     inkscape:cy="259.90382"
     inkscape:window-x="81"
     inkscape:window-y="30"
     inkscape:window-maximized="1"
     inkscape:current-layer="layer1" />
  <title
     id="title3398">LaTeX logo</title>
  <g
     transform="matrix(45,0,0,45,40,40)"
     id="g3400"
     fill="black">
    <path
       d="m 11.200795,0.44669206 c 0,0 -6.0899993,0 -6.0899993,0 0,0 -0.18,2.23999994 -0.18,2.23999994 0,0 0.24,0 0.24,0 0.14,-1.6099999 0.29,-1.93999994 1.8,-1.93999994 0.18,0 0.44,0 0.54,0.02 0.21,0.04 0.21,0.15 0.21,0.38000004 0,0 0,5.2499999 0,5.2499999 0,0.34 0,0.48 -1.05,0.48 0,0 -0.4,0 -0.4,0 0,0 0,0.31 0,0.31 0.41,-0.03 1.42,-0.03 1.88,-0.03 0.46,0 1.49,0 1.9000003,0.03 0,0 0,-0.31 0,-0.31 0,0 -0.4000003,0 -0.4000003,0 -1.05,0 -1.05,-0.14 -1.05,-0.48 0,0 0,-5.2499999 0,-5.2499999 0,-0.20000004 0,-0.34000004 0.18,-0.38000004 0.11,-0.02 0.38,-0.02 0.57,-0.02 1.4999993,0 1.6499993,0.33000004 1.7899993,1.93999994 0,0 0.25,0 0.25,0 0,0 -0.19,-2.23999994 -0.19,-2.23999994 z"
       id="path3406"
       inkscape:connector-curvature="0" />
    <path
       d="m 16.560795,6.866692 c 0,0 -0.25,0 -0.25,0 -0.25,1.53 -0.48,2.26 -2.19,2.26 0,0 -1.32,0 -1.32,0 -0.47,0 -0.49,-0.07 -0.49,-0.4 0,0 0,-2.66 0,-2.66 0,0 0.89,0 0.89,0 0.97,0 1.08,0.32 1.08,1.17 0,0 0.25,0 0.25,0 0,0 0,-2.64 0,-2.64 0,0 -0.25,0 -0.25,0 0,0.85 -0.11,1.16 -1.08,1.16 0,0 -0.89,0 -0.89,0 0,0 0,-2.39 0,-2.39 0,-0.33 0.02,-0.4 0.49,-0.4 0,0 1.28,0 1.28,0 1.53,0 1.79,0.55 1.95,1.94 0,0 0.25,0 0.25,0 0,0 -0.28,-2.24 -0.28,-2.24 0,0 -5.6,0 -5.6,0 0,0 0,0.3 0,0.3 0,0 0.23,0 0.23,0 0.77,0 0.79,0.11 0.79,0.47 0,0 0,5.22 0,5.22 0,0.36 -0.02,0.47 -0.79,0.47 0,0 -0.23,0 -0.23,0 0,0 0,0.31 0,0.31 0,0 5.74,0 5.74,0 0,0 0.42,-2.57 0.42,-2.57 z"
       id="path3408"
       inkscape:connector-curvature="0" />
    <path
       d="m 19.570795,3.336692 c 0,0 1.37,-2 1.37,-2 0.21,-0.3199999 0.55,-0.63999994 1.44,-0.64999994 0,0 0,-0.3 0,-0.3 0,0 -2.38,0 -2.38,0 0,0 0,0.3 0,0.3 0.4,0.01 0.62,0.23 0.62,0.46000004 0,0.1 -0.02,0.1199999 -0.09,0.2299999 0,0 -1.14,1.68 -1.14,1.68 0,0 -1.28,-1.9199999 -1.28,-1.9199999 -0.02,-0.03 -0.07,-0.11 -0.07,-0.15000004 0,-0.12 0.22,-0.29 0.64,-0.3 0,0 0,-0.3 0,-0.3 -0.34,0.03 -1.07,0.03 -1.45,0.03 -0.31,0 -0.93,-0.01 -1.3,-0.03 0,0 0,0.3 0,0.3 0,0 0.19,0 0.19,0 0.55,0 0.74,0.07 0.93,0.35000004 0,0 1.83,2.7699999 1.83,2.7699999 0,0 -1.63,2.41 -1.63,2.41 -0.14,0.2 -0.44,0.66 -1.44,0.66 0,0 0,0.31 0,0.31 0,0 2.38,0 2.38,0 0,0 0,-0.31 0,-0.31 -0.46,-0.01 -0.63,-0.28 -0.63,-0.46 0,-0.09 0.03,-0.13 0.1,-0.24 0,0 1.41,-2.09 1.41,-2.09 0,0 1.58,2.38 1.58,2.38 0.02,0.04 0.05,0.08 0.05,0.11 0,0.12 -0.22,0.29 -0.65,0.3 0,0 0,0.31 0,0.31 0.35,-0.03 1.08,-0.03 1.45,-0.03 0.42,0 0.88,0.01 1.3,0.03 0,0 0,-0.31 0,-0.31 0,0 -0.19,0 -0.19,0 -0.52,0 -0.73,-0.05 -0.94,-0.36 0,0 -2.1,-3.18 -2.1,-3.18 z"
       id="path3410"
       inkscape:connector-curvature="0" />
    <g
       inkscape:label="Layer 1"
       id="layer1"
       transform="matrix(0.01224426,0,0,0.01166325,-0.14043822,-1.4931698)">
      <text
         y="649.78223"
         xml:space="preserve"
         x="147.1078"
         transform="scale(0.81298921,1.2300286)"
         style="font-style:normal;font-variant:normal;font-weight:normal;font-stretch:normal;font-size:681.55505371px;line-height:100%;font-family:'Bitstream Vera Sans';writing-mode:lr-tb;text-anchor:start;fill:#000000;fill-opacity:1;stroke:none;stroke-width:1px;stroke-linecap:butt;stroke-linejoin:miter;stroke-opacity:1"
         sodipodi:linespacing="100%"
         id="text1312"><tspan
           y="649.78223"
           x="147.1078"
           sodipodi:role="line"
           id="tspan1314">{</tspan></text>
      <text
         y="650.61041"
         xml:space="preserve"
         x="-2676.3145"
         transform="scale(-0.80398913,1.2437979)"
         style="font-style:normal;font-variant:normal;font-weight:normal;font-stretch:normal;font-size:689.18499756px;line-height:100%;font-family:'Bitstream Vera Sans';writing-mode:lr-tb;text-anchor:start;fill:#000000;fill-opacity:1;stroke:none;stroke-width:1px;stroke-linecap:butt;stroke-linejoin:miter;stroke-opacity:1"
         sodipodi:linespacing="100%"
         id="text1316"><tspan
           y="650.61041"
           x="-2676.3145"
           sodipodi:role="line"
           id="tspan1318">{</tspan></text>
    </g>
  </g>
</svg>
