<?xml version="1.0" encoding="UTF-8" standalone="no"?>
<svg
   xmlns:dc="http://purl.org/dc/elements/1.1/"
   xmlns:cc="http://creativecommons.org/ns#"
   xmlns:rdf="http://www.w3.org/1999/02/22-rdf-syntax-ns#"
   xmlns:svg="http://www.w3.org/2000/svg"
   xmlns="http://www.w3.org/2000/svg"
   xmlns:sodipodi="http://sodipodi.sourceforge.net/DTD/sodipodi-0.dtd"
   xmlns:inkscape="http://www.inkscape.org/namespaces/inkscape"
   version="1.0"
   width="804.15002"
   height="407.25"
   overflow="scroll"
   id="svg3396"
   inkscape:version="0.91 r"
   sodipodi:docname="TeX_logo.svg"
   style="overflow:scroll">
  <metadata
     id="metadata3416">
    <rdf:RDF>
      <cc:Work
         rdf:about="">
        <dc:format>image/svg+xml</dc:format>
        <dc:type
           rdf:resource="http://purl.org/dc/dcmitype/StillImage" />
        <dc:title>LaTeX logo</dc:title>
      </cc:Work>
    </rdf:RDF>
  </metadata>
  <defs
     id="defs3414" />
  <sodipodi:namedview
     pagecolor="#ffffff"
     bordercolor="#666666"
     borderopacity="1"
     objecttolerance="10"
     gridtolerance="10"
     guidetolerance="10"
     inkscape:pageopacity="0"
     inkscape:pageshadow="2"
     inkscape:window-width="2124"
     inkscape:window-height="1375"
     id="namedview3412"
     showgrid="false"
     fit-margin-top="0"
     fit-margin-left="0"
     fit-margin-right="0"
     fit-margin-bottom="0"
     inkscape:zoom="1.6408333"
     inkscape:cx="327.27651"
     inkscape:cy="204.9"
     inkscape:window-x="81"
     inkscape:window-y="30"
     inkscape:window-maximized="0"
     inkscape:current-layer="g3400" />
  <title
     id="title3398">LaTeX logo</title>
  <g
     transform="matrix(45,0,0,45,-316.35,-7.65)"
     id="g3400"
     style="fill:#000000">
    <path
       transform="translate(7.03,0.23)"
       d="M 6.27,0 C 6.27,0 0.18,0 0.18,0 0.18,0 0,2.24 0,2.24 c 0,0 0.24,0 0.24,0 0.14,-1.61 0.29,-1.94 1.8,-1.94 0.18,0 0.44,0 0.54,0.02 0.21,0.04 0.21,0.15 0.21,0.38 0,0 0,5.25 0,5.25 0,0.34 0,0.48 -1.05,0.48 0,0 -0.4,0 -0.4,0 0,0 0,0.31 0,0.31 0.41,-0.03 1.42,-0.03 1.88,-0.03 0.46,0 1.49,0 1.9,0.03 0,0 0,-0.31 0,-0.31 0,0 -0.4,0 -0.4,0 -1.05,0 -1.05,-0.14 -1.05,-0.48 0,0 0,-5.25 0,-5.25 0,-0.2 0,-0.34 0.18,-0.38 C 3.96,0.3 4.23,0.3 4.42,0.3 c 1.5,0 1.65,0.33 1.79,1.94 0,0 0.25,0 0.25,0 C 6.46,2.24 6.27,0 6.27,0 Z"
       id="path3406"
       inkscape:connector-curvature="0" />
    <path
       transform="translate(12.5,2.45)"
       d="m 6.16,4.2 c 0,0 -0.25,0 -0.25,0 -0.25,1.53 -0.48,2.26 -2.19,2.26 0,0 -1.32,0 -1.32,0 -0.47,0 -0.49,-0.07 -0.49,-0.4 0,0 0,-2.66 0,-2.66 0,0 0.89,0 0.89,0 0.97,0 1.08,0.32 1.08,1.17 0,0 0.25,0 0.25,0 0,0 0,-2.64 0,-2.64 0,0 -0.25,0 -0.25,0 0,0.85 -0.11,1.16 -1.08,1.16 0,0 -0.89,0 -0.89,0 0,0 0,-2.39 0,-2.39 0,-0.33 0.02,-0.4 0.49,-0.4 0,0 1.28,0 1.28,0 1.53,0 1.79,0.55 1.95,1.94 0,0 0.25,0 0.25,0 C 5.88,2.24 5.6,0 5.6,0 5.6,0 0,0 0,0 c 0,0 0,0.3 0,0.3 0,0 0.23,0 0.23,0 0.77,0 0.79,0.11 0.79,0.47 0,0 0,5.22 0,5.22 0,0.36 -0.02,0.47 -0.79,0.47 0,0 -0.23,0 -0.23,0 0,0 0,0.31 0,0.31 0,0 5.74,0 5.74,0 0,0 0.42,-2.57 0.42,-2.57 z"
       id="path3408"
       inkscape:connector-curvature="0" />
    <path
       transform="translate(17.91,0.17)"
       d="m 3.76,2.95 c 0,0 1.37,-2 1.37,-2 0.21,-0.32 0.55,-0.64 1.44,-0.65 0,0 0,-0.3 0,-0.3 0,0 -2.38,0 -2.38,0 0,0 0,0.3 0,0.3 0.4,0.01 0.62,0.23 0.62,0.46 0,0.1 -0.02,0.12 -0.09,0.23 0,0 -1.14,1.68 -1.14,1.68 C 3.58,2.67 2.3,0.75 2.3,0.75 2.28,0.72 2.23,0.64 2.23,0.6 c 0,-0.12 0.22,-0.29 0.64,-0.3 0,0 0,-0.3 0,-0.3 C 2.53,0.03 1.8,0.03 1.42,0.03 1.11,0.03 0.49,0.02 0.12,0 c 0,0 0,0.3 0,0.3 0,0 0.19,0 0.19,0 0.55,0 0.74,0.07 0.93,0.35 0,0 1.83,2.77 1.83,2.77 0,0 -1.63,2.41 -1.63,2.41 C 1.3,6.03 1,6.49 0,6.49 c 0,0 0,0.31 0,0.31 0,0 2.38,0 2.38,0 0,0 0,-0.31 0,-0.31 C 1.92,6.48 1.75,6.21 1.75,6.03 c 0,-0.09 0.03,-0.13 0.1,-0.24 0,0 1.41,-2.09 1.41,-2.09 0,0 1.58,2.38 1.58,2.38 0.02,0.04 0.05,0.08 0.05,0.11 0,0.12 -0.22,0.29 -0.65,0.3 0,0 0,0.31 0,0.31 0.35,-0.03 1.08,-0.03 1.45,-0.03 0.42,0 0.88,0.01 1.3,0.03 0,0 0,-0.31 0,-0.31 0,0 -0.19,0 -0.19,0 -0.52,0 -0.73,-0.05 -0.94,-0.36 0,0 -2.1,-3.18 -2.1,-3.18 z"
       id="path3410"
       inkscape:connector-curvature="0" />
  </g>
</svg>
