<?xml version="1.0" encoding="utf-8"?>
<!-- Generator: Adobe Illustrator 19.1.0, SVG Export Plug-In . SVG Version: 6.00 Build 0)  -->
<svg version="1.1" id="Layer_1" xmlns="http://www.w3.org/2000/svg" xmlns:xlink="http://www.w3.org/1999/xlink" x="0px" y="0px"
	 viewBox="-246.9 560.3 631.6 80.5" style="enable-background:new -246.9 560.3 631.6 80.5;" xml:space="preserve">
<style type="text/css">
	.st0{fill:#FFFFFF;}
	.st1{fill:#26A69A;}
</style>
<path class="st0" d="M-238.7,640.2c-4.5,0-8.2-3.8-8.2-8.2v-63.5c0-4.5,3.8-8.2,8.5-8.2c4.5,0,8.2,3.8,8.2,8.2V632
	C-230.2,636.5-234,640.2-238.7,640.2z"/>
<path class="st0" d="M-151.6,640.3c-3.5,0-6.8-2.1-8.1-5.5l-3.1-8.5h-33.7l-3.2,8.5c-1.3,3.4-4.6,5.5-8.2,5.5c-5.3,0-8.8-4.5-8.8-9
	c0-1.1,0.1-2.1,0.6-3.2l23-59c2-5.3,7.3-8.8,12.8-8.8c6-0.5,12,3.1,14.3,8.8l22.9,59c0.4,1.1,0.6,2.1,0.6,3.2
	C-142.7,635.7-146.2,640.3-151.6,640.3z"/>
<path class="st0" d="M-95.4,575.1h-16.4v56.7c0,4.6-3.8,8.4-8.5,8.4c-4.6,0-8.4-3.8-8.4-8.4v-56.7H-145c-4,0-7.3-3.3-7.3-7.6
	c0-3.9,3.3-7.2,7.3-7.2h49.6c3.9,0,7.2,3.3,7.2,7.5C-88.2,571.8-91.5,575.1-95.4,575.1z"/>
<path class="st0" d="M-66.7,640.2c-4.5,0-8.2-3.8-8.2-8.2v-63.5c0-4.5,3.8-8.2,8.5-8.2c4.5,0,8.2,3.8,8.2,8.2V632
	C-58.2,636.5-61.9,640.2-66.7,640.2z"/>
<g>
	<path class="st1" d="M-12,640.8c-11.3,0-25.3-3.7-29.6-10.1c-0.8-1.2-1.3-2.6-1.3-4c0-4.4,3.8-7.7,7.8-7.7c1.5,0,3.1,0.3,4.4,1.3
		c5.2,3.6,11.9,6.1,19.5,6.1c9.1,0,13.5-4.2,13.5-8.6c0-13.8-44.8-4.3-44.8-33.6c0-12.9,11.2-23.7,29.5-23.7
		c8.9,0,22.4,2.9,26.7,8.6c0.9,1.2,1.4,2.6,1.4,4c0,4.4-4.3,7.5-8.3,7.5c-1.4,0-2.8-0.4-4.2-1.2c-5.4-3-11.4-4.4-17.1-4.4
		c-7.1,0-11.1,3.1-11.1,7.8c0,12.4,44.7,4.1,44.7,33.1C19.1,630.1,9,640.8-12,640.8z"/>
	<path class="st1" d="M84.4,576.2H68.2v55.6c0,4.5-3.7,8.3-8.4,8.3c-4.5,0-8.3-3.7-8.3-8.3v-55.6H35.3c-4,0-7.2-3.3-7.2-7.5
		c0-3.8,3.3-7.1,7.2-7.1h49.1c3.8,0,7.1,3.3,7.1,7.3C91.5,573,88.2,576.2,84.4,576.2z"/>
	<path class="st1" d="M139.9,640.8c-23.7,0-35.1-13.3-35.1-32.4v-39.2c0-4.5,3.7-8.3,8.5-8.3c4.5,0,8.3,3.7,8.3,8.3v38.6
		c0,10.8,6.3,18.3,18.3,18.3s18.2-7.5,18.2-18.3v-38.6c0-4.5,3.7-8.3,8.6-8.3c4.5,0,8.3,3.7,8.3,8.3v39.1
		C175,627.7,163.6,640.8,139.9,640.8z"/>
	<path class="st1" d="M218.9,639.4h-21.3c-5.1,0-9.3-4.2-9.3-9.3V571c0-5.1,4.2-9.3,9.3-9.3h21.3c24.4,0,41.3,15.5,41.3,38.9
		S243.3,639.4,218.9,639.4z M218.9,576.2h-14.1v48.6h14.1c15.4,0,24.4-11.1,24.4-24.2C243.3,586.8,234.9,576.2,218.9,576.2z"/>
	<path class="st1" d="M281.7,640.2c-4.4,0-8.2-3.7-8.2-8.2v-62.8c0-4.4,3.7-8.2,8.4-8.2c4.4,0,8.2,3.7,8.2,8.2V632
		C290.1,636.5,286.3,640.2,281.7,640.2z"/>
	<path class="st1" d="M344,640.8c-23.4,0-40.6-16.8-40.6-40.2s17.1-40.2,40.6-40.2s40.7,16.8,40.7,40.2
		C384.6,624,367.5,640.8,344,640.8z M344,575.1c-14.3,0-23.6,11-23.6,25.5s9.2,25.5,23.6,25.5c14.3,0,23.7-11.1,23.7-25.5
		C367.6,586,358.3,575.1,344,575.1z"/>
</g>
</svg>
